<svg xmlns="http://www.w3.org/2000/svg" viewBox="0 0 32 32">
  <style>
    .bg { fill: #FAFAF7; }
    .mark { fill: #181410; }
    @media (prefers-color-scheme: dark) {
      .bg { fill: #0B0710; }
      .mark { fill: #F2EDFB; }
    }
  </style>
  <rect class="bg" width="32" height="32" rx="4"/>
  <g class="mark" transform="translate(4 24.829) scale(0.0100334 -0.0100334) translate(-78 0)">
    <path d="M78 0V1760H614L762 687L909 1760H1450V0H1128V1268L926 0H610L396 1268V0Z"/>
    <g transform="translate(1528 0)">
      <path d="M78 0V1760H555Q747 1760 834.5 1666.5Q922 1573 922 1358V1281Q922 1157 877.5 1080.0Q833 1003 742 979Q861 949 901.5 838.5Q942 728 942 569Q942 398 910.0 270.0Q878 142 794.0 71.0Q710 0 555 0ZM422 1097H494Q543 1097 557.0 1135.0Q571 1173 571 1226V1403Q571 1488 496 1488H422ZM457 310Q594 310 594 440V660Q594 735 571.5 778.5Q549 822 487 822H422V312Q444 310 457 310Z"/>
    </g>
  </g>
</svg>
